<svg xmlns="http://www.w3.org/2000/svg" xmlns:xlink="http://www.w3.org/1999/xlink" contentStyleType="text/css" data-diagram-type="DESCRIPTION" height="1159px" preserveAspectRatio="none" style="width:1835px;height:1159px;background:#FFFFFF;" version="1.1" viewBox="0 0 1835 1159" width="1835px" zoomAndPan="magnify"><?plantuml 1.2026.6?><defs/><g><g class="title" data-source-line="1"><text fill="#000000" font-family="sans-serif" font-size="14" font-weight="700" lengthAdjust="spacing" textLength="332.4316" x="748.0267" y="22.9951">Archive Search Workbench - Netwerk-USB</text><text fill="#000000" font-family="sans-serif" font-size="14" font-weight="700" lengthAdjust="spacing" textLength="398.1523" x="715.1664" y="39.292">Zoek -&gt; klik -&gt; app koppelt de juiste schijf vanzelf</text><text fill="#000000" font-family="sans-serif" font-size="14" font-weight="700" lengthAdjust="spacing" textLength="504.3691" x="662.058" y="55.5889">(functioneel groot, techniek klein; gestippeld = nog te bouwen)</text></g><!--cluster EXP--><g class="cluster" data-qualified-name="EXP" data-source-line="11" id="ent0002"><polygon fill="none" points="16,85.8906,26,75.8906,482,75.8906,482,367.4306,472,377.4306,16,377.4306,16,85.8906" style="stroke:#181818;stroke-width:1;stroke-linejoin:miter;stroke-miterlimit:10;"/><line style="stroke:#181818;stroke-width:1;" x1="472" x2="482" y1="85.8906" y2="75.8906"/><line style="stroke:#181818;stroke-width:1;" x1="16" x2="472" y1="85.8906" y2="85.8906"/><line style="stroke:#181818;stroke-width:1;" x1="472" x2="472" y1="85.8906" y2="377.4306"/><text fill="#000000" font-family="sans-serif" font-size="13" font-weight="700" lengthAdjust="spacing" textLength="213.9858" x="138.0071" y="100.9575">De machine waar jij nu werkt</text><text fill="#000000" font-family="sans-serif" font-size="10" font-weight="700" lengthAdjust="spacing" textLength="312.5049" x="88.7476" y="113.3057">herkend aan het IP van je browser - remote_hosts.yaml</text></g><!--cluster SERVER--><g class="cluster" data-qualified-name="SERVER" data-source-line="19" id="ent0007"><polygon fill="none" points="514,267.8206,524,257.8206,1252,257.8206,1252,1108.1206,1242,1118.1206,514,1118.1206,514,267.8206" style="stroke:#181818;stroke-width:1;stroke-linejoin:miter;stroke-miterlimit:10;"/><line style="stroke:#181818;stroke-width:1;" x1="1242" x2="1252" y1="267.8206" y2="257.8206"/><line style="stroke:#181818;stroke-width:1;" x1="514" x2="1242" y1="267.8206" y2="267.8206"/><line style="stroke:#181818;stroke-width:1;" x1="1242" x2="1242" y1="267.8206" y2="1118.1206"/><text fill="#000000" font-family="sans-serif" font-size="13" font-weight="700" lengthAdjust="spacing" textLength="221.9648" x="768.0176" y="282.8875">De indexeer-server - het brein</text><text fill="#000000" font-family="sans-serif" font-size="10" font-weight="700" lengthAdjust="spacing" textLength="303.6279" x="727.186" y="295.2357">de indexeer-server - &lt;server-ip&gt; - Ubuntu (altijd aan)</text></g><!--entity DISK--><g class="entity" data-qualified-name="EXP.DISK" data-source-line="12" id="ent0003"><rect fill="#F1F1F1" height="33.9375" rx="2.5" ry="2.5" style="stroke:#181818;stroke-width:0.5;" width="336.4111" x="80.79" y="125.8906"/><text fill="#000000" font-family="sans-serif" font-size="14" font-weight="700" lengthAdjust="spacing" textLength="208.749" x="144.6211" y="141.8857">De oude schijf die je zoekt</text><text fill="#000000" font-family="sans-serif" font-size="10" lengthAdjust="spacing" textLength="316.4111" x="90.79" y="154.4697">externe USB-schijf / stick / SD (stickerlabel ARCHIVE-DISK-XXX)</text></g><!--entity AGENT--><g class="entity" data-qualified-name="EXP.AGENT" data-source-line="13" id="ent0004"><rect fill="#F1F1F1" height="45.6094" rx="2.5" ry="2.5" style="stroke:#181818;stroke-width:1;stroke-dasharray:7,7;" width="434.6973" x="31.65" y="315.8206"/><text fill="#000000" font-family="sans-serif" font-size="12" font-weight="700" lengthAdjust="spacing" textLength="291.2402" x="103.3785" y="336.9593">Archief-agent: regelt delen namens de app</text><text fill="#000000" font-family="sans-serif" font-size="10" lengthAdjust="spacing" textLength="414.6973" x="41.65" y="349.0716">[nog te bouwen] achtergrond-service: schijf herkennen (serial/uuid) + delen (bind)</text></g><!--entity APP--><g class="entity" data-qualified-name="SERVER.APP" data-source-line="20" id="ent0008"><rect fill="#F1F1F1" height="45.6094" rx="2.5" ry="2.5" style="stroke:#181818;stroke-width:0.5;" width="310.8496" x="897.58" y="315.8206"/><text fill="#000000" font-family="sans-serif" font-size="12" font-weight="700" lengthAdjust="spacing" textLength="118.7637" x="993.623" y="336.9593">Zoeken &amp; openen</text><text fill="#000000" font-family="sans-serif" font-size="10" lengthAdjust="spacing" textLength="290.8496" x="907.58" y="349.0716">web_app.py - Flask :5059 - zoekresultaat -&gt; knop Openen</text></g><!--entity ORCH--><g class="entity" data-qualified-name="SERVER.ORCH" data-source-line="21" id="ent0009"><rect fill="#F1F1F1" height="45.6094" rx="2.5" ry="2.5" style="stroke:#181818;stroke-width:1;stroke-dasharray:7,7;" width="370.0391" x="537.98" y="518.3206"/><text fill="#000000" font-family="sans-serif" font-size="12" font-weight="700" lengthAdjust="spacing" textLength="273.8906" x="586.0542" y="539.4593">Regelt automatisch koppelen bij openen</text><text fill="#000000" font-family="sans-serif" font-size="10" lengthAdjust="spacing" textLength="350.0391" x="547.98" y="551.5716">[nog te bouwen] roept agent v/d huidige machine aan: bind -&gt; attach</text></g><!--entity CTL--><g class="entity" data-qualified-name="SERVER.CTL" data-source-line="22" id="ent0010"><rect fill="#F1F1F1" height="45.6094" rx="2.5" ry="2.5" style="stroke:#181818;stroke-width:0.5;" width="307.7363" x="569.13" y="708.3506"/><text fill="#000000" font-family="sans-serif" font-size="12" font-weight="700" lengthAdjust="spacing" textLength="287.7363" x="579.13" y="729.4893">Koppelt de schijf op afstand aan de server</text><text fill="#000000" font-family="sans-serif" font-size="10" lengthAdjust="spacing" textLength="188.1055" x="628.9454" y="741.6016">usbip_ctl.sh + vhci-hcd - usbip attach</text></g><!--entity DEV--><g class="entity" data-qualified-name="SERVER.DEV" data-source-line="23" id="ent0011"><rect fill="#F1F1F1" height="33.9375" rx="2.5" ry="2.5" style="stroke:#181818;stroke-width:0.5;" width="301.0391" x="681.48" y="814.9606"/><text fill="#000000" font-family="sans-serif" font-size="14" font-weight="700" lengthAdjust="spacing" textLength="281.0391" x="691.48" y="830.9557">De schijf, nu zichtbaar op de server</text><text fill="#000000" font-family="sans-serif" font-size="10" lengthAdjust="spacing" textLength="43.5645" x="810.2173" y="843.5397">/dev/sdX</text></g><!--entity MNT--><g class="entity" data-qualified-name="SERVER.MNT" data-source-line="24" id="ent0012"><rect fill="#F1F1F1" height="45.6094" rx="2.5" ry="2.5" style="stroke:#181818;stroke-width:0.5;" width="273.2275" x="893.39" y="925.9006"/><text fill="#000000" font-family="sans-serif" font-size="12" font-weight="700" lengthAdjust="spacing" textLength="182.9473" x="938.5301" y="947.0393">Veilig openen: alleen lezen</text><text fill="#000000" font-family="sans-serif" font-size="10" lengthAdjust="spacing" textLength="253.2275" x="903.39" y="959.1516">mount_readonly.sh - read-only + schrijfbeveiliging</text></g><!--entity DB--><g class="entity" data-qualified-name="SERVER.DB" data-source-line="25" id="ent0013"><path d="M942.89,522.6606 C942.89,512.6606 1062.9999,512.6606 1062.9999,512.6606 C1062.9999,512.6606 1183.1097,512.6606 1183.1097,522.6606 L1183.1097,559.5981 C1183.1097,569.5981 1062.9999,569.5981 1062.9999,569.5981 C1062.9999,569.5981 942.89,569.5981 942.89,559.5981 L942.89,522.6606" fill="#F1F1F1" style="stroke:#181818;stroke-width:0.5;"/><path d="M942.89,522.6606 C942.89,532.6606 1062.9999,532.6606 1062.9999,532.6606 C1062.9999,532.6606 1183.1097,532.6606 1183.1097,522.6606" fill="none" style="stroke:#181818;stroke-width:0.5;"/><text fill="#000000" font-family="sans-serif" font-size="14" font-weight="700" lengthAdjust="spacing" textLength="220.2197" x="952.89" y="549.6557">Kaartenbak: wat staat waar</text><text fill="#000000" font-family="sans-serif" font-size="10" lengthAdjust="spacing" textLength="219.5801" x="953.2098" y="562.2397">SQLite catalogus (ook offline doorzoekbaar)</text></g><!--entity RECOLL--><g class="entity" data-qualified-name="SERVER.RECOLL" data-source-line="26" id="ent0014"><rect fill="#F1F1F1" height="45.6094" rx="2.5" ry="2.5" style="stroke:#181818;stroke-width:0.5;" width="219.4648" x="920.27" y="1048.5106"/><text fill="#000000" font-family="sans-serif" font-size="12" font-weight="700" lengthAdjust="spacing" textLength="199.4648" x="930.27" y="1069.6493">Volledige tekst doorzoekbaar</text><text fill="#000000" font-family="sans-serif" font-size="10" lengthAdjust="spacing" textLength="103.1006" x="978.4521" y="1081.7616">Recoll full-text index</text></g><!--entity USER--><g class="entity" data-qualified-name="USER" data-source-line="9" id="ent0001"><ellipse cx="971.9962" cy="107.3906" fill="#F1F1F1" rx="8" ry="8" style="stroke:#181818;stroke-width:0.5;"/><path d="M971.9962,115.3906 L971.9962,142.3906 M958.9962,123.3906 L984.9962,123.3906 M971.9962,142.3906 L958.9962,157.3906 M971.9962,142.3906 L984.9962,157.3906" fill="none" style="stroke:#181818;stroke-width:0.5;"/><text fill="#000000" font-family="sans-serif" font-size="14" font-weight="700" lengthAdjust="spacing" textLength="14.8066" x="964.5929" y="171.8857">Jij</text><text fill="#000000" font-family="sans-serif" font-size="10" lengthAdjust="spacing" textLength="216.7725" x="863.61" y="184.4697">zoekt bv. pensioenbegrippen in de browser</text></g><!--entity LAN--><g class="entity" data-qualified-name="LAN" data-source-line="17" id="ent0006"><path d="M75.3769,521.6768 C81.4259,509.9279 92.7271,508.7143 101.2271,518.7712 C111.7937,505.2403 121.408,503.7447 131.8829,518.8692 C140.253,503.9403 152.9152,501.7138 162.694,517.454 C170.6804,503.4964 180.4338,502.9709 191.1093,514.45 C200.569,504.2824 208.3206,503.8834 216.274,516.1404 C225.9767,501.9451 236.713,498.6143 248.1143,514.3324 C254.5799,500.9116 266.3008,498.6703 276.4657,510.1144 C285.3966,496.7341 296.0593,498.3064 303.227,511.866 C313.4391,499.9774 323.3351,501.2289 330.574,515.0309 C341.8471,501.603 353.5554,502.1041 363.7984,516.2711 C372.3125,507.0226 382.6254,505.5641 388.223,519.3621 C398.9245,504.1106 409.6939,504.4406 420.4621,519.2906 C431.8855,509.2648 441.2018,507.0845 448.2602,523.8241 C454.482,510.7763 466.0619,510.8871 474.5292,521.3109 C480.3772,521.374 484.0257,525.4323 480.964,531.2587 C487.9837,530.1396 490.8075,535.3906 487.8358,541.1871 C490.4864,547.9509 489.6814,552.1658 481.3917,552.9218 C486.9098,559.0519 483.5483,564.5147 476.6822,566.2781 C471.1413,580.5957 457.7249,578.5628 450.2718,568.3356 C441.4213,582.6389 426.5989,580.7588 418.4591,567.5148 C410.5221,584.551 400.9987,586.8671 388.2345,572.1027 C380.564,584.1053 368.7582,581.3735 363.0058,570.0299 C354.5661,584.8179 345.7879,588.312 333.0252,574.5732 C324.8763,588.6235 312.734,590.9006 303.9828,575.1604 C296.3974,588.1236 284.0531,586.4017 277.1351,574.4414 C267.7643,591.4242 257.6422,590.7815 246.0609,576.6489 C235.9869,589.8651 222.5335,587.116 216.6582,572.2525 C207.2819,582.8982 199.1394,584.5509 191.2355,570.723 C181.9595,583.2964 170.9112,583.7175 162.9458,569.3471 C153.9592,581.6262 140.0423,583.0633 133.1276,567.1553 C124.8954,578.9849 110.8531,578.967 103.9238,565.6427 C94.0199,580.2681 81.1827,576.7081 73.5076,563.2305 C68.395,561.5622 68.1157,557.1706 71.4659,553.691 C66.3525,549.6325 66.1405,545.2585 71.8853,541.5758 C66.7167,538.5655 66.7213,533.2448 72.3326,530.677 C69.3586,526.7449 69.651,522.6662 75.3769,521.6768" fill="#F1F1F1" style="stroke:#181818;stroke-width:0.5;"/><text fill="#000000" font-family="sans-serif" font-size="14" font-weight="700" lengthAdjust="spacing" textLength="227.7393" x="159.1284" y="540.1557">Je eigen netwerk (thuis-LAN)</text><text fill="#000000" font-family="sans-serif" font-size="10" lengthAdjust="spacing" textLength="388.4961" x="78.75" y="552.7397">USB/IP over TCP 3240 (onversleuteld -&gt; LAN-only) + agent-oproep met token</text></g><g class="entity" data-qualified-name="GMN26" data-source-line="43" id="ent0027"><path d="M1279.54,303.3606 L1279.54,373.8919 L1796.4506,373.8919 L1796.4506,313.3606 L1786.4506,303.3606 L1279.54,303.3606" fill="#FEFFDD" style="stroke:#181818;stroke-width:0.5;"/><path d="M1786.4506,303.3606 L1786.4506,313.3606 L1796.4506,313.3606 L1786.4506,303.3606" fill="#FEFFDD" style="stroke:#181818;stroke-width:1;"/><text fill="#000000" font-family="sans-serif" font-size="13" font-weight="700" lengthAdjust="spacing" textLength="373.5215" x="1346.7346" y="320.4275">Bij offline schijf (keuze): vragen + auto-detecteren</text><text fill="#000000" font-family="sans-serif" font-size="13" lengthAdjust="spacing" textLength="375.6543" x="1345.6682" y="335.5603">Toont "Sluit ARCHIVE-DISK-XXX aan op &lt;jouw machine&gt;"</text><text fill="#000000" font-family="sans-serif" font-size="13" lengthAdjust="spacing" textLength="332.8965" x="1367.0471" y="350.6931">en opent het bestand zodra de agent de schijf ziet.</text><text fill="#000000" font-family="sans-serif" font-size="13" lengthAdjust="spacing" textLength="495.9106" x="1285.54" y="365.826">Onboarding nieuwe machine: http://&lt;server-ip&gt;:5059/netwerk-usb (#1110)</text></g><g class="entity" data-qualified-name="GMN29" data-source-line="50" id="ent0030"><path d="M1275.51,450.8906 L1275.51,631.3516 L1820.4851,631.3516 L1820.4851,460.8906 L1810.4851,450.8906 L1275.51,450.8906" fill="#FEFFDD" style="stroke:#181818;stroke-width:0.5;"/><path d="M1810.4851,450.8906 L1810.4851,460.8906 L1820.4851,460.8906 L1810.4851,450.8906" fill="#FEFFDD" style="stroke:#181818;stroke-width:1;"/><text fill="#000000" font-family="sans-serif" font-size="13" font-weight="700" lengthAdjust="spacing" textLength="67.9009" x="1328.0923" y="483.0903">Gekozen:</text><text fill="#000000" font-family="sans-serif" font-size="13" lengthAdjust="spacing" textLength="352.7773" x="1400.1255" y="483.0903">kleine achtergrond-agent per machine -&gt; app handelt</text><text fill="#000000" font-family="sans-serif" font-size="13" lengthAdjust="spacing" textLength="408.2813" x="1336.3569" y="498.2231">detecteren, delen, koppelen en openen volledig af (hands-off).</text><text fill="#000000" font-family="sans-serif" font-size="13" font-weight="700" lengthAdjust="spacing" textLength="339.46" x="1370.7676" y="513.356">Fallback bij agent-failure (geen silent failure):</text><text fill="#000000" font-family="sans-serif" font-size="13" lengthAdjust="spacing" textLength="498.1768" x="1291.4092" y="528.4888">1) Persistent bind: schijf eenmalig vastzetten (admin), daarna auto-gedeeld.</text><text fill="#000000" font-family="sans-serif" font-size="13" lengthAdjust="spacing" textLength="368.5449" x="1356.2251" y="543.6216">2) Hybride: agent waar kan, persistent bind als vangnet.</text><text fill="#000000" font-family="sans-serif" font-size="13" lengthAdjust="spacing" textLength="517.9751" x="1281.51" y="558.7544">3) Handmatig: Netwerk-USB-paneel + /netwerk-usb (usbipd bind met de hand).</text><text fill="#000000" font-family="sans-serif" font-size="13" lengthAdjust="spacing" textLength="4.1323" x="1538.4314" y="573.8872">&#160;</text><text fill="#000000" font-family="sans-serif" font-size="13" lengthAdjust="spacing" textLength="511.3926" x="1284.8013" y="589.02">Haakt in op de onboarding-masterchecklist Mantis #527: een nieuwe machine</text><text fill="#000000" font-family="sans-serif" font-size="13" lengthAdjust="spacing" textLength="504.8481" x="1288.0735" y="604.1528">wordt via een voorspelbare lijst volledig productief; elke nieuwe mogelijkheid</text><text fill="#000000" font-family="sans-serif" font-size="13" lengthAdjust="spacing" textLength="288.0947" x="1396.4502" y="619.2856">registreert zich daar, zo blijft alles vindbaar.</text><line style="stroke:#181818;stroke-width:1;" x1="1276.51" x2="1433.5842" y1="463.457" y2="463.457"/><line style="stroke:#181818;stroke-width:1;" x1="1276.51" x2="1433.5842" y1="465.457" y2="465.457"/><text fill="#000000" font-family="sans-serif" font-size="13" lengthAdjust="spacing" textLength="228.8267" x="1433.5842" y="467.4575">Ontwerp &amp; fallback - Mantis #1113</text><line style="stroke:#181818;stroke-width:1;" x1="1662.4109" x2="1819.4851" y1="463.457" y2="463.457"/><line style="stroke:#181818;stroke-width:1;" x1="1662.4109" x2="1819.4851" y1="465.457" y2="465.457"/></g><!--entity NAS--><g class="entity" data-qualified-name="NAS" data-source-line="63" id="ent0032"><polygon fill="#F1F1F1" points="1115.09,124.4706,1125.09,114.4706,1534.9142,114.4706,1534.9142,161.2441,1524.9142,171.2441,1115.09,171.2441,1115.09,124.4706" style="stroke:#181818;stroke-width:1;stroke-dasharray:7,7;stroke-linejoin:miter;stroke-miterlimit:10;"/><line style="stroke:#181818;stroke-width:1;stroke-dasharray:7,7;" x1="1524.9142" x2="1534.9142" y1="124.4706" y2="114.4706"/><line style="stroke:#181818;stroke-width:1;stroke-dasharray:7,7;" x1="1115.09" x2="1524.9142" y1="124.4706" y2="124.4706"/><line style="stroke:#181818;stroke-width:1;stroke-dasharray:7,7;" x1="1524.9142" x2="1524.9142" y1="124.4706" y2="171.2441"/><text fill="#000000" font-family="sans-serif" font-size="13" font-weight="700" lengthAdjust="spacing" textLength="232.8574" x="1203.5734" y="146.5375">De NAS - kan nog niet meedoen</text><text fill="#000000" font-family="sans-serif" font-size="10" lengthAdjust="spacing" textLength="379.8242" x="1130.09" y="158.8857">Synology &lt;nas-ip&gt; - DSM mist usbip-modules - apart kanaal: Mantis #1111</text></g><!--link DISK to AGENT--><g class="link" data-entity-1="ent0003" data-entity-2="ent0004" data-link-type="dependency" data-source-line="14" id="lnk5"><path d="M249,160.0406 C249,194.7006 249,271.1106 249,310.5106" fill="none" id="DISK-to-AGENT" style="stroke:#181818;stroke-width:1;"/><polygon fill="#181818" points="249,315.5106,253,306.5106,249,310.5106,245,306.5106,249,315.5106" style="stroke:#181818;stroke-width:1;stroke-linejoin:miter;stroke-miterlimit:10;"/><text fill="#000000" font-family="sans-serif" font-size="13" lengthAdjust="spacing" textLength="175.0493" x="250" y="229.8875">agent ziet &amp; deelt de schijf</text></g><!--link APP to DB--><g class="link" data-entity-1="ent0008" data-entity-2="ent0013" data-link-type="dependency" data-source-line="28" id="lnk15"><path d="M1054.11,361.8506 C1055.94,398.6606 1059.3601,467.1969 1061.3701,507.3669" fill="none" id="APP-to-DB" style="stroke:#181818;stroke-width:1;"/><polygon fill="#181818" points="1061.62,512.3606,1065.1652,503.172,1061.3701,507.3669,1057.1752,503.5718,1061.62,512.3606" style="stroke:#181818;stroke-width:1;stroke-linejoin:miter;stroke-miterlimit:10;"/><text fill="#000000" font-family="sans-serif" font-size="13" lengthAdjust="spacing" textLength="135.2114" x="1057.81" y="416.9575">zoek pensioenbegrip</text></g><!--link APP to ORCH--><g class="link" data-entity-1="ent0008" data-entity-2="ent0009" data-link-type="dependency" data-source-line="29" id="lnk16"><path d="M944.28,361.9206 C911.41,371.6406 876.3,385.2206 847,403.8906 C799.26,434.3206 761.0982,483.6742 740.3382,513.7842" fill="none" id="APP-to-ORCH" style="stroke:#181818;stroke-width:1;"/><polygon fill="#181818" points="737.5,517.9006,745.9018,512.7616,740.3382,513.7842,739.3155,508.2206,737.5,517.9006" style="stroke:#181818;stroke-width:1;stroke-linejoin:miter;stroke-miterlimit:10;"/><text fill="#000000" font-family="sans-serif" font-size="13" lengthAdjust="spacing" textLength="199.1196" x="848" y="416.9575">klik Openen op offline bestand</text></g><!--link ORCH to CTL--><g class="link" data-entity-1="ent0009" data-entity-2="ent0010" data-link-type="dependency" data-source-line="30" id="lnk17"><path d="M723,564.0606 C723,600.2006 723,666.8406 723,703.0706" fill="none" id="ORCH-to-CTL" style="stroke:#181818;stroke-width:1;"/><polygon fill="#181818" points="723,708.0706,727,699.0706,723,703.0706,719,699.0706,723,708.0706" style="stroke:#181818;stroke-width:1;stroke-linejoin:miter;stroke-miterlimit:10;"/><text fill="#000000" font-family="sans-serif" font-size="13" lengthAdjust="spacing" textLength="150.7822" x="724" y="674.4175">koppel de schijf binnen</text></g><!--link CTL to DEV--><g class="link" data-entity-1="ent0010" data-entity-2="ent0011" data-link-type="dependency" data-source-line="31" id="lnk18"><path d="M747.46,754.3306 C767.67,772.6406 792.1953,794.8627 810.3553,811.3227" fill="none" id="CTL-to-DEV" style="stroke:#181818;stroke-width:1;"/><polygon fill="#181818" points="814.06,814.6806,810.0779,805.6727,810.3553,811.3227,804.7053,811.6002,814.06,814.6806" style="stroke:#181818;stroke-width:1;stroke-linejoin:miter;stroke-miterlimit:10;"/></g><!--link DEV to MNT--><g class="link" data-entity-1="ent0011" data-entity-2="ent0012" data-link-type="dependency" data-source-line="32" id="lnk19"><path d="M856.18,849.3606 C875.77,862.4606 904.27,881.0106 930,895.9006 C947.77,906.1806 963.3349,914.4809 980.7649,923.3609" fill="none" id="DEV-to-MNT" style="stroke:#181818;stroke-width:1;"/><polygon fill="#181818" points="985.22,925.6306,979.0165,917.981,980.7649,923.3609,975.385,925.1092,985.22,925.6306" style="stroke:#181818;stroke-width:1;stroke-linejoin:miter;stroke-miterlimit:10;"/><text fill="#000000" font-family="sans-serif" font-size="13" lengthAdjust="spacing" textLength="122.916" x="931" y="891.9675">veilig aankoppelen</text></g><!--link MNT to APP--><g class="link" data-entity-1="ent0012" data-entity-2="ent0008" data-link-type="dependency" data-source-line="33" id="lnk20"><path d="M1047.08,925.5406 C1083.98,876.1206 1170.24,751.7306 1201,631.3506 C1253.83,424.5806 1206.3,410.4206 1202,403.8906 C1189.38,384.7106 1174.2572,373.2877 1153.2772,363.8177" fill="none" id="MNT-to-APP" style="stroke:#181818;stroke-width:1;"/><polygon fill="#181818" points="1148.72,361.7606,1155.2774,369.1091,1153.2772,363.8177,1158.5687,361.8175,1148.72,361.7606" style="stroke:#181818;stroke-width:1;stroke-linejoin:miter;stroke-miterlimit:10;"/><text fill="#000000" font-family="sans-serif" font-size="13" lengthAdjust="spacing" textLength="155.562" x="1175.41" y="735.7275">bestand openen / tonen</text></g><!--link MNT to RECOLL--><g class="link" data-entity-1="ent0012" data-entity-2="ent0014" data-link-type="dependency" data-source-line="34" id="lnk21"><path d="M1030,971.8306 C1030,993.5906 1030,1021.6206 1030,1043.3306" fill="none" id="MNT-to-RECOLL" style="stroke:#181818;stroke-width:1;stroke-dasharray:7,7;"/><polygon fill="#181818" points="1030,1048.3306,1034,1039.3306,1030,1043.3306,1026,1039.3306,1030,1048.3306" style="stroke:#181818;stroke-width:1;stroke-linejoin:miter;stroke-miterlimit:10;"/><text fill="#000000" font-family="sans-serif" font-size="13" lengthAdjust="spacing" textLength="137.979" x="1031" y="1014.5775">(bij nieuw indexeren)</text></g><!--link USER to APP--><g class="link" data-entity-1="ent0001" data-entity-2="ent0008" data-link-type="dependency" data-source-line="37" id="lnk22"><path d="M989.98,186.8606 C1006.62,226.6606 1028.7617,279.6474 1041.8117,310.8674" fill="none" id="USER-to-APP" style="stroke:#181818;stroke-width:1;"/><polygon fill="#181818" points="1043.74,315.4806,1043.9596,305.6342,1041.8117,310.8674,1036.5785,308.7195,1043.74,315.4806" style="stroke:#181818;stroke-width:1;stroke-linejoin:miter;stroke-miterlimit:10;"/><text fill="#000000" font-family="sans-serif" font-size="13" lengthAdjust="spacing" textLength="126.8325" x="1008.65" y="229.8875">zoek + klik Openen</text></g><!--link ORCH to AGENT--><g class="link" data-entity-1="ent0009" data-entity-2="ent0004" data-link-type="dependency" data-source-line="38" id="lnk23"><path d="M670.59,517.9506 C579.44,479.4006 397.375,402.3885 306.145,363.7985" fill="none" id="ORCH-to-AGENT" style="stroke:#181818;stroke-width:1;stroke-dasharray:7,7;"/><polygon fill="#181818" points="301.54,361.8506,308.2706,369.0408,306.145,363.7985,311.3873,361.6728,301.54,361.8506" style="stroke:#181818;stroke-width:1;stroke-linejoin:miter;stroke-miterlimit:10;"/><text fill="#000000" font-family="sans-serif" font-size="13" lengthAdjust="spacing" textLength="94.3452" x="430.61" y="416.9575">via LAN, token</text><text fill="#000000" font-family="sans-serif" font-size="13" lengthAdjust="spacing" textLength="156.4316" x="490.6269" y="505.9123">deel ARCHIVE-DISK-XXX</text></g><!--link AGENT to LAN--><g class="link" data-entity-1="ent0004" data-entity-2="ent0006" data-link-type="dependency" data-source-line="39" id="lnk24"><path d="M251.66,361.8506 C256.04,398.4506 264.1753,466.4061 269.0053,506.7261" fill="none" id="AGENT-to-LAN" style="stroke:#181818;stroke-width:1;"/><polygon fill="#181818" points="269.6,511.6906,272.5011,502.2787,269.0053,506.7261,264.5579,503.2303,269.6,511.6906" style="stroke:#181818;stroke-width:1;stroke-linejoin:miter;stroke-miterlimit:10;"/></g><!--link LAN to CTL--><g class="link" data-entity-1="ent0006" data-entity-2="ent0010" data-link-type="dependency" data-source-line="40" id="lnk25"><path d="M340.86,570.4806 C430.84,608.0806 583.1965,671.743 665.1465,705.983" fill="none" id="LAN-to-CTL" style="stroke:#181818;stroke-width:1;"/><polygon fill="#181818" points="669.76,707.9106,662.9978,700.7502,665.1465,705.983,659.9136,708.1318,669.76,707.9106" style="stroke:#181818;stroke-width:1;stroke-linejoin:miter;stroke-miterlimit:10;"/></g><!--link APP to GMN26--><g class="link" data-entity-1="ent0008" data-entity-2="ent0027" data-link-type="association" data-source-line="43" id="lnk28"><path d="M1075.78,315.3806 C1107.11,285.2406 1166.8,234.1906 1229.5,214.3206 C1328.03,183.1106 1439.6,256.3206 1497.8,303.1806" fill="none" id="APP-GMN26" style="stroke:#181818;stroke-width:1;stroke-dasharray:7,7;"/></g><!--link SERVER to GMN29--><g class="link" data-entity-1="ent0007" data-entity-2="ent0030" data-link-type="association" data-source-line="50" id="lnk31"><path d="M1252.0393,369.0747 C1252.1724,369.3831 1252.3075,369.6912 1252.4447,369.999 C1252.7191,370.6146 1253.0017,371.2289 1253.2927,371.8406 C1255.6206,376.7344 1258.4875,381.4656 1262,385.4306 C1284.08,410.3706 1311.17,432.0306 1339.8,450.5906" fill="none" id="SERVER-GMN29" style="stroke:#181818;stroke-width:1;stroke-dasharray:7,7;"/></g><!--link NAS to SERVER--><g class="link" data-entity-1="ent0032" data-entity-2="ent0007" data-link-type="dependency" data-source-line="64" id="lnk33"><path d="M1303.15,171.4106 C1289.31,190.2206 1272.17,216.2706 1262,241.8206 C1258.1225,251.5706 1255.0675,262.2175 1252.6641,272.755 C1252.5138,273.4136 1252.3662,274.0718 1252.221,274.7293 C1252.1484,275.058 1253.1379,270.5005 1253.0666,270.8289" fill="none" id="NAS-to-SERVER" style="stroke:#181818;stroke-width:1;stroke-dasharray:7,7;"/><polygon fill="#181818" points="1252.0051,275.715,1257.8245,267.7692,1253.0666,270.8289,1250.0069,266.0709,1252.0051,275.715" style="stroke:#181818;stroke-width:1;stroke-linejoin:miter;stroke-miterlimit:10;"/><text fill="#000000" font-family="sans-serif" font-size="13" lengthAdjust="spacing" textLength="142.8032" x="1273.8" y="229.8875">later, als apart kanaal</text></g><?plantuml-src TLVRRjj647tNLmmS890GKugJ1aLPnu0JEvV6SLpBSOqsHR0aHzAAgrs2NCgnYlvxpomfcPBT1ziIkJkNCsVEZBtsXkcuJ6TwoJHcXK_qXolpX2q-HNJE_fRBFFewVlFD_kauf-Y8SgF3NrKKbBkYOECfOvhNkl9C5OpD9xHKTiLcyits9xLDlNQMsT2qTCxla-TqPZMivOQr_PMcN7ajXZ9wJTPDSO0ILz-o7VHwLQvjeKgreDGj2jYnVkpl47V9gLTsQhXpf9gfpDrgEwM9CbNtJSOJLHj_nJ_yiT5Jku0TIl6Boyufwp9-v-11hvWENZxc_FxrYrvFfTwLj7UO7FscvuUZvEYRFQpmCZvuVhG2NfwIvP0AjfLsR1EUbfAd9Mq5igHqjnMNXoEvShH7ggAluzFBNa_225PFc1OAY5gcMwLAckivsPgaA7x7tGpFs6QabAKPU_fu8KMW-SODwbdomdd-FdELhuPtQc6whazlBkYV7b6gocpjtDNPfgIPPh4Mqjhn3L2vH8pWITIU7X5gckRuEpwXVlZCfL49M71y-VR3n-lJwEJZ-5DqStCpw4OX3oM8DTmXaa1HdaHgYYSnqfWsf3E0qYgKiX8uGSYTkFxQ8jFV12WHA5XeimY8B7NAyJgz1Z-uHBHSQcL6TQsp0Jrh_VGJRREjK8_VdvvVqHE3wWmpLSquG-0IFqLeZ-PjJ25cMccKv2bCjTtIEEtzs-kb1Y0t569YFPMKchQZlf-XgQApu_F1Jc80UeG2koNAUlNsWbw--EavzPt5zyfmxQML40DkHiwQEyaYn16vedHSq0BHU8Tyk_dWz3Rra33_O2u3Le50GgoaHDFkn9CzTlYm-HJfuWZVlYQrzJNrbV5w7cYw1IPuVtrwsH1mg_OYEy3aAJaq3kywlkNaE-e-BExWufrHLKxng-UlVi4t8Mh95PfUAH-4oxg2lhHMEcMyk7ZWzB9XcAgzMoYlKQrMwX19WXvyD9PTjWdIlgt_SfGHYfcXlfkE1WGn2Qk2cdgFnzsulg1DTjcr7UMdU_LjIOm4rQI2B3Ow82z23NOYhQj45zzJRuRL3DHOpb8TpLB4GU7D8y6ylJhRaOR6uxx8qKgZhnBH9_Z_Fv-ZZ9UZAhlPQlRJwmT9NRE6FhS8etsCOO1kUFK0xuK3exwN3Ca7noKLKJYL1SeZBKHO8iI4by4afaBNz-VpA_ZEb5U9gXhAVq8A7ZAjyXXoww5WmXmHtXtFuz_FD0gTuh9nqxf2wxcSt6GYrQBCkLB89uXiQzkRXzawv1TOuJcl_DRT7QUNdE8mJMfZ8W_5RJgkQ__ozEsNixCUd83JGOHEta21nDxE3EeS2JIBcwdUD8TKSPrBme5DE1_EoGLGGSu7xdMe1oBZBWxA--0x51U_mxVFGGoRIWWtr-s48_8gA2OYYjSUMm9WVdXdDyU6mwCsIvpiIoTYZwXlM_4fPM60fCeGxLWC-J_hPjWBoOYnjKhlYJ8_c4nxr5zg9SAutyZbeDTSY1fnxU5dZOb89pXHwkdC0xvMLb3YDw8NBPmjLlsSwnKFW4SfyY3g3AM9CiPcv2KDAJrkNpadF1cRMli7mOKEHwaEvz2RjQWSxU5QAA4mBCXrY-VAPQKAOp88qdtXP3GDfS0sSUXlMPu2g1kXYcdcVH6FHXr13o8xQWTL1DMW_fE3WuFdWvxi8894YqVYF3HK06aK7evUluOlkLX0rR6dcKHXKOZeixAGMX8xBt6eGUyzvmwj7miYpRx8MsEyoQR0m5dBQhkQpf0qn55wV0FhVZFBz-_5l8KAVvPj9q90gI-NgmXL6moRCDwjmnJEDQDqehIfIwR-L0IgqaO2QHyEuhQ21mEwm4oMrHXlHUmt2mTkBPHqmr9LViNUovAXieMs0yI9_hUgeSMKXPoPHF9YG1_kab9dl5uimbgOA-HKRFk1SbQo0KvjKzwNk8giP9nDu-vc7nKgBEVFQBkUOHHaZItP5y0OWGM8mDe7fN9He5RntOOxqGBPCFOrJj5mKBHrLL-z-3cMd7V81Lkthimm8T5e7EhWoWh5IHImDNeE4vlIO7d9QlmtmPDVYKtE6riEurhFynbhaIhiX_1SOXdnOJO5DFVH0PJWrCI7eG9ma9dex72Bi_Vhp_dn6Am4jk5_4YiRt88vSmy6qVZEEio1EpgqgchNdPFnPrf8_W76Q870nMS4RcB8Y5MbJDpb_45NoiNtrkoN1o9OxPuKar60UJzKkMloFm00?></g><g class="plantuml-saver-watermark"><rect fill="#FFFFFF" fill-opacity="0.9" height="16" style="stroke:none;" width="1835" x="0" y="1143"/><a href="/browse?path=260728-1329-hdd-indexer-netwerk-usb-architectuur" xlink:href="/browse?path=260728-1329-hdd-indexer-netwerk-usb-architectuur"><text fill="#5f6f75" font-family="sans-serif" font-size="10" x="4" y="1154">20260728-132922</text></a></g></svg>